<mxfile host="Electron" modified="2024-06-30T00:43:51.323Z" agent="Mozilla/5.0 (X11; Linux x86_64) AppleWebKit/537.36 (KHTML, like Gecko) draw.io/24.6.1 Chrome/124.0.6367.207 Electron/30.0.6 Safari/537.36" etag="lA_xxK1StUMGn0xRHxvQ" version="24.6.1" type="device">
  <diagram name="Page-1" id="RXrL0wg2e0oGERpfDm_i">
    <mxGraphModel dx="3133" dy="2951" grid="1" gridSize="10" guides="1" tooltips="1" connect="1" arrows="1" fold="1" page="1" pageScale="1" pageWidth="850" pageHeight="1100" math="0" shadow="0">
      <root>
        <mxCell id="0" />
        <mxCell id="1" parent="0" />
        <mxCell id="KQigV4kiUP4QNjF24Gm--21" value="" style="ellipse;shape=cloud;whiteSpace=wrap;html=1;" vertex="1" parent="1">
          <mxGeometry x="150" y="-200" width="850" height="651" as="geometry" />
        </mxCell>
        <mxCell id="KQigV4kiUP4QNjF24Gm--22" value="" style="ellipse;shape=cloud;whiteSpace=wrap;html=1;" vertex="1" parent="1">
          <mxGeometry x="750.86" y="-470" width="1040" height="1220.43" as="geometry" />
        </mxCell>
        <mxCell id="cZ90DH8mNP3HIYeP9Kkx-25" style="edgeStyle=orthogonalEdgeStyle;rounded=0;orthogonalLoop=1;jettySize=auto;html=1;fillColor=#1ba1e2;strokeColor=#006EAF;strokeWidth=6;dashed=1;shape=arrow;" parent="1" source="cZ90DH8mNP3HIYeP9Kkx-7" target="cZ90DH8mNP3HIYeP9Kkx-33" edge="1">
          <mxGeometry relative="1" as="geometry" />
        </mxCell>
        <mxCell id="cZ90DH8mNP3HIYeP9Kkx-27" value="Cross-Forest Trust" style="edgeLabel;html=1;align=center;verticalAlign=middle;resizable=0;points=[];" parent="cZ90DH8mNP3HIYeP9Kkx-25" vertex="1" connectable="0">
          <mxGeometry x="-0.0208" relative="1" as="geometry">
            <mxPoint as="offset" />
          </mxGeometry>
        </mxCell>
        <mxCell id="cZ90DH8mNP3HIYeP9Kkx-7" value="Painters.htb" style="ellipse;whiteSpace=wrap;html=1;aspect=fixed;fillColor=#a20025;strokeColor=#6F0000;fontColor=#ffffff;" parent="1" vertex="1">
          <mxGeometry x="355" y="-50" width="410" height="410" as="geometry" />
        </mxCell>
        <mxCell id="cZ90DH8mNP3HIYeP9Kkx-1" value="" style="shape=ext;double=1;rounded=1;whiteSpace=wrap;html=1;" parent="1" vertex="1">
          <mxGeometry x="210" y="370" width="120" height="260" as="geometry" />
        </mxCell>
        <mxCell id="cZ90DH8mNP3HIYeP9Kkx-5" style="edgeStyle=orthogonalEdgeStyle;rounded=0;orthogonalLoop=1;jettySize=auto;html=1;" parent="1" source="cZ90DH8mNP3HIYeP9Kkx-2" target="cZ90DH8mNP3HIYeP9Kkx-3" edge="1">
          <mxGeometry relative="1" as="geometry">
            <Array as="points">
              <mxPoint x="273" y="490" />
              <mxPoint x="273" y="490" />
            </Array>
          </mxGeometry>
        </mxCell>
        <mxCell id="cZ90DH8mNP3HIYeP9Kkx-2" value="Attacker&lt;div&gt;10.10.17.103&lt;/div&gt;" style="sketch=0;pointerEvents=1;shadow=0;dashed=0;html=1;strokeColor=#B20000;fillColor=#e51400;aspect=fixed;labelPosition=center;verticalLabelPosition=bottom;verticalAlign=top;align=center;outlineConnect=0;shape=mxgraph.vvd.laptop;fontColor=#ffffff;" parent="1" vertex="1">
          <mxGeometry x="221.39" y="515" width="97.22" height="70" as="geometry" />
        </mxCell>
        <mxCell id="cZ90DH8mNP3HIYeP9Kkx-8" style="edgeStyle=orthogonalEdgeStyle;rounded=0;orthogonalLoop=1;jettySize=auto;html=1;entryX=0;entryY=0.5;entryDx=0;entryDy=0;" parent="1" source="cZ90DH8mNP3HIYeP9Kkx-11" target="cZ90DH8mNP3HIYeP9Kkx-6" edge="1">
          <mxGeometry relative="1" as="geometry">
            <Array as="points">
              <mxPoint x="270" y="130" />
            </Array>
          </mxGeometry>
        </mxCell>
        <mxCell id="cZ90DH8mNP3HIYeP9Kkx-3" value="mail&lt;div&gt;10.10.110.35&lt;/div&gt;&lt;div&gt;192.168.110.51&lt;/div&gt;" style="image;aspect=fixed;perimeter=ellipsePerimeter;html=1;align=center;shadow=0;dashed=0;spacingTop=3;image=img/lib/active_directory/web_server.svg;labelBackgroundColor=#FC1A1A;" parent="1" vertex="1">
          <mxGeometry x="237" y="330" width="72" height="90" as="geometry" />
        </mxCell>
        <mxCell id="cZ90DH8mNP3HIYeP9Kkx-4" value="" style="image;aspect=fixed;perimeter=ellipsePerimeter;html=1;align=center;fontSize=12;verticalAlign=top;fontColor=#364149;shadow=0;dashed=0;image=img/lib/cumulus/cumulus_linux_icon.svg;" parent="1" vertex="1">
          <mxGeometry x="270" y="320" width="30" height="30" as="geometry" />
        </mxCell>
        <mxCell id="cZ90DH8mNP3HIYeP9Kkx-19" style="edgeStyle=orthogonalEdgeStyle;rounded=0;orthogonalLoop=1;jettySize=auto;html=1;" parent="1" source="cZ90DH8mNP3HIYeP9Kkx-6" target="cZ90DH8mNP3HIYeP9Kkx-16" edge="1">
          <mxGeometry relative="1" as="geometry" />
        </mxCell>
        <mxCell id="cZ90DH8mNP3HIYeP9Kkx-20" style="edgeStyle=orthogonalEdgeStyle;rounded=0;orthogonalLoop=1;jettySize=auto;html=1;" parent="1" source="cZ90DH8mNP3HIYeP9Kkx-6" target="cZ90DH8mNP3HIYeP9Kkx-10" edge="1">
          <mxGeometry relative="1" as="geometry" />
        </mxCell>
        <mxCell id="cZ90DH8mNP3HIYeP9Kkx-21" style="edgeStyle=orthogonalEdgeStyle;rounded=0;orthogonalLoop=1;jettySize=auto;html=1;" parent="1" source="cZ90DH8mNP3HIYeP9Kkx-6" target="cZ90DH8mNP3HIYeP9Kkx-17" edge="1">
          <mxGeometry relative="1" as="geometry">
            <Array as="points">
              <mxPoint x="620" y="130" />
            </Array>
          </mxGeometry>
        </mxCell>
        <mxCell id="cZ90DH8mNP3HIYeP9Kkx-22" style="edgeStyle=orthogonalEdgeStyle;rounded=0;orthogonalLoop=1;jettySize=auto;html=1;" parent="1" source="cZ90DH8mNP3HIYeP9Kkx-6" target="cZ90DH8mNP3HIYeP9Kkx-13" edge="1">
          <mxGeometry relative="1" as="geometry" />
        </mxCell>
        <mxCell id="cZ90DH8mNP3HIYeP9Kkx-6" value="DC&lt;div&gt;192.168.110.55&lt;/div&gt;" style="image;aspect=fixed;perimeter=ellipsePerimeter;html=1;align=center;shadow=0;dashed=0;spacingTop=3;image=img/lib/active_directory/domain_controller.svg;labelBackgroundColor=#FC1A1A;" parent="1" vertex="1">
          <mxGeometry x="340" y="80" width="70" height="100" as="geometry" />
        </mxCell>
        <mxCell id="cZ90DH8mNP3HIYeP9Kkx-10" value="PNT-SVRBPA&lt;div&gt;192.168.110.53&lt;/div&gt;&lt;div&gt;user: admin&lt;/div&gt;" style="sketch=0;pointerEvents=1;shadow=0;dashed=0;html=1;strokeColor=#B20000;fillColor=#e51400;labelPosition=center;verticalLabelPosition=bottom;verticalAlign=top;outlineConnect=0;align=center;shape=mxgraph.office.devices.workstation_pc;fontColor=#ffffff;" parent="1" vertex="1">
          <mxGeometry x="439.99999999999994" y="190.56" width="61.86" height="68.87" as="geometry" />
        </mxCell>
        <mxCell id="cZ90DH8mNP3HIYeP9Kkx-12" value="" style="edgeStyle=orthogonalEdgeStyle;rounded=0;orthogonalLoop=1;jettySize=auto;html=1;entryX=0;entryY=0.5;entryDx=0;entryDy=0;" parent="1" source="cZ90DH8mNP3HIYeP9Kkx-3" target="cZ90DH8mNP3HIYeP9Kkx-11" edge="1">
          <mxGeometry relative="1" as="geometry">
            <mxPoint x="270" y="330" as="sourcePoint" />
            <mxPoint x="340" y="130" as="targetPoint" />
            <Array as="points">
              <mxPoint x="270" y="300" />
              <mxPoint x="270" y="300" />
            </Array>
          </mxGeometry>
        </mxCell>
        <mxCell id="cZ90DH8mNP3HIYeP9Kkx-11" value="SSHUTTLE" style="image;aspect=fixed;perimeter=ellipsePerimeter;html=1;align=center;shadow=0;dashed=0;spacingTop=3;image=img/lib/active_directory/tunnel.svg;rotation=-90;" parent="1" vertex="1">
          <mxGeometry x="245" y="220" width="50" height="10" as="geometry" />
        </mxCell>
        <mxCell id="cZ90DH8mNP3HIYeP9Kkx-13" value="PNT-SVRSVC&lt;div&gt;192.168.110.52&lt;/div&gt;&lt;div&gt;user:&amp;nbsp;web_svc&lt;/div&gt;" style="sketch=0;pointerEvents=1;shadow=0;dashed=0;html=1;strokeColor=#B20000;fillColor=#e51400;labelPosition=center;verticalLabelPosition=bottom;verticalAlign=top;outlineConnect=0;align=center;shape=mxgraph.office.devices.workstation_pc;fontColor=#ffffff;" parent="1" vertex="1">
          <mxGeometry x="469.99999999999994" y="-10" width="61.86" height="68.87" as="geometry" />
        </mxCell>
        <mxCell id="cZ90DH8mNP3HIYeP9Kkx-16" value="WORKSTATION-1&lt;div&gt;&lt;span style=&quot;background-color: initial;&quot;&gt;192.168.110.56&lt;/span&gt;&lt;/div&gt;&lt;div&gt;&lt;span style=&quot;background-color: initial;&quot;&gt;user: riley&lt;/span&gt;&lt;/div&gt;" style="sketch=0;pointerEvents=1;shadow=0;dashed=0;html=1;strokeColor=#B20000;fillColor=#e51400;labelPosition=center;verticalLabelPosition=bottom;verticalAlign=top;outlineConnect=0;align=center;shape=mxgraph.office.devices.workstation_pc;fontColor=#ffffff;" parent="1" vertex="1">
          <mxGeometry x="600" y="-10.000000000000007" width="61.86" height="68.87" as="geometry" />
        </mxCell>
        <mxCell id="cZ90DH8mNP3HIYeP9Kkx-17" value="&lt;div&gt;PNT-SVRPSB&lt;br&gt;&lt;/div&gt;&lt;div&gt;192.168.110.54&lt;/div&gt;&lt;div&gt;user: blake&lt;/div&gt;" style="sketch=0;pointerEvents=1;shadow=0;dashed=0;html=1;strokeColor=#B20000;fillColor=#e51400;labelPosition=center;verticalLabelPosition=bottom;verticalAlign=top;outlineConnect=0;align=center;shape=mxgraph.office.devices.workstation_pc;fontColor=#ffffff;" parent="1" vertex="1">
          <mxGeometry x="670" y="111.13" width="61.86" height="68.87" as="geometry" />
        </mxCell>
        <mxCell id="cZ90DH8mNP3HIYeP9Kkx-24" value="zsm.local" style="ellipse;whiteSpace=wrap;html=1;aspect=fixed;fillColor=#6a00ff;strokeColor=#3700CC;fontColor=#ffffff;" parent="1" vertex="1">
          <mxGeometry x="1010" y="-170" width="667.5" height="667.5" as="geometry" />
        </mxCell>
        <mxCell id="cZ90DH8mNP3HIYeP9Kkx-28" value="&lt;div&gt;&lt;span style=&quot;background-color: initial;&quot;&gt;ZPH - SVRCA01&lt;/span&gt;&lt;/div&gt;&lt;div&gt;&lt;span style=&quot;background-color: initial;&quot;&gt;192.168.210.12&lt;/span&gt;&lt;br&gt;&lt;/div&gt;&lt;div&gt;user: blake&lt;/div&gt;" style="sketch=0;pointerEvents=1;shadow=0;dashed=0;html=1;strokeColor=#B20000;fillColor=#e51400;labelPosition=center;verticalLabelPosition=bottom;verticalAlign=top;outlineConnect=0;align=center;shape=mxgraph.office.devices.workstation_pc;fontColor=#ffffff;" parent="1" vertex="1">
          <mxGeometry x="1099" y="-30" width="61.86" height="68.87" as="geometry" />
        </mxCell>
        <mxCell id="KQigV4kiUP4QNjF24Gm--20" style="edgeStyle=orthogonalEdgeStyle;rounded=0;orthogonalLoop=1;jettySize=auto;html=1;" edge="1" parent="1" source="cZ90DH8mNP3HIYeP9Kkx-33" target="KQigV4kiUP4QNjF24Gm--10">
          <mxGeometry relative="1" as="geometry">
            <Array as="points">
              <mxPoint x="870" y="-50" />
              <mxPoint x="848" y="-50" />
              <mxPoint x="848" y="-140" />
            </Array>
          </mxGeometry>
        </mxCell>
        <mxCell id="cZ90DH8mNP3HIYeP9Kkx-33" value="&lt;div&gt;ZPH-SVRDC01&lt;/div&gt;&lt;div&gt;192.168.210.10&lt;br&gt;&lt;/div&gt;" style="image;aspect=fixed;perimeter=ellipsePerimeter;html=1;align=center;shadow=0;dashed=0;spacingTop=3;image=img/lib/active_directory/domain_controller.svg;labelBackgroundColor=#FC1A1A;" parent="1" vertex="1">
          <mxGeometry x="850" y="-31.999999999999996" width="70" height="100" as="geometry" />
        </mxCell>
        <mxCell id="cZ90DH8mNP3HIYeP9Kkx-34" value="&lt;div&gt;ZPH-SVRMGMT1&lt;br&gt;&lt;/div&gt;&lt;div&gt;&lt;span style=&quot;background-color: initial;&quot;&gt;192.168.210.11&lt;/span&gt;&lt;br&gt;&lt;/div&gt;&lt;div&gt;user: blake&lt;/div&gt;" style="sketch=0;pointerEvents=1;shadow=0;dashed=0;html=1;strokeColor=#B20000;fillColor=#e51400;labelPosition=center;verticalLabelPosition=bottom;verticalAlign=top;outlineConnect=0;align=center;shape=mxgraph.office.devices.workstation_pc;fontColor=#ffffff;" parent="1" vertex="1">
          <mxGeometry x="1289" y="-110" width="61.86" height="68.87" as="geometry" />
        </mxCell>
        <mxCell id="cZ90DH8mNP3HIYeP9Kkx-35" value="&lt;div&gt;&lt;span style=&quot;background-color: initial;&quot;&gt;ZPH - SVRSQL01&lt;/span&gt;&lt;/div&gt;&lt;div&gt;&lt;span style=&quot;background-color: initial;&quot;&gt;192.168.210.15&lt;/span&gt;&lt;br&gt;&lt;/div&gt;&lt;div&gt;user: blake&lt;/div&gt;" style="sketch=0;pointerEvents=1;shadow=0;dashed=0;html=1;strokeColor=#B20000;fillColor=#e51400;labelPosition=center;verticalLabelPosition=bottom;verticalAlign=top;outlineConnect=0;align=center;shape=mxgraph.office.devices.workstation_pc;fontColor=#ffffff;" parent="1" vertex="1">
          <mxGeometry x="1469" y="-20" width="61.86" height="68.87" as="geometry" />
        </mxCell>
        <mxCell id="cZ90DH8mNP3HIYeP9Kkx-38" value="&lt;div&gt;ZPH-SVRADFS1&lt;br&gt;&lt;/div&gt;&lt;div&gt;&lt;span style=&quot;background-color: initial;&quot;&gt;192.168.210.14&lt;/span&gt;&lt;br&gt;&lt;/div&gt;&lt;div&gt;user: blake&lt;/div&gt;" style="sketch=0;pointerEvents=1;shadow=0;dashed=0;html=1;strokeColor=#B20000;fillColor=#e51400;labelPosition=center;verticalLabelPosition=bottom;verticalAlign=top;outlineConnect=0;align=center;shape=mxgraph.office.devices.workstation_pc;fontColor=#ffffff;" parent="1" vertex="1">
          <mxGeometry x="1109" y="220.57" width="61.86" height="68.87" as="geometry" />
        </mxCell>
        <mxCell id="cZ90DH8mNP3HIYeP9Kkx-44" value="internal.zsm.local" style="ellipse;whiteSpace=wrap;html=1;aspect=fixed;fillColor=#fa6800;strokeColor=#C73500;fontColor=#000000;" parent="1" vertex="1">
          <mxGeometry x="1279" y="180" width="270" height="270" as="geometry" />
        </mxCell>
        <mxCell id="cZ90DH8mNP3HIYeP9Kkx-41" value="&lt;div&gt;ZPH-SVRCDC01&lt;/div&gt;&lt;div&gt;192.168.210.16&lt;/div&gt;" style="image;aspect=fixed;perimeter=ellipsePerimeter;html=1;align=center;shadow=0;dashed=0;spacingTop=3;image=img/lib/active_directory/domain_controller.svg;labelBackgroundColor=none;" parent="1" vertex="1">
          <mxGeometry x="1269.0000000000002" y="240" width="70" height="100" as="geometry" />
        </mxCell>
        <mxCell id="cZ90DH8mNP3HIYeP9Kkx-45" value="" style="aspect=fixed;sketch=0;html=1;dashed=0;whitespace=wrap;verticalLabelPosition=bottom;verticalAlign=top;fillColor=#2875E2;strokeColor=#ffffff;points=[[0.005,0.63,0],[0.1,0.2,0],[0.9,0.2,0],[0.5,0,0],[0.995,0.63,0],[0.72,0.99,0],[0.5,1,0],[0.28,0.99,0]];shape=mxgraph.kubernetes.icon2;prIcon=user" parent="1" vertex="1">
          <mxGeometry x="530" y="182" width="29.17" height="28" as="geometry" />
        </mxCell>
        <mxCell id="cZ90DH8mNP3HIYeP9Kkx-46" value="" style="aspect=fixed;sketch=0;html=1;dashed=0;whitespace=wrap;verticalLabelPosition=bottom;verticalAlign=top;fillColor=#2875E2;strokeColor=#ffffff;points=[[0.005,0.63,0],[0.1,0.2,0],[0.9,0.2,0],[0.5,0,0],[0.995,0.63,0],[0.72,0.99,0],[0.5,1,0],[0.28,0.99,0]];shape=mxgraph.kubernetes.icon2;prIcon=user" parent="1" vertex="1">
          <mxGeometry x="550" y="302" width="29.17" height="28" as="geometry" />
        </mxCell>
        <mxCell id="cZ90DH8mNP3HIYeP9Kkx-47" value="" style="aspect=fixed;sketch=0;html=1;dashed=0;whitespace=wrap;verticalLabelPosition=bottom;verticalAlign=top;fillColor=#2875E2;strokeColor=#ffffff;points=[[0.005,0.63,0],[0.1,0.2,0],[0.9,0.2,0],[0.5,0,0],[0.995,0.63,0],[0.72,0.99,0],[0.5,1,0],[0.28,0.99,0]];shape=mxgraph.kubernetes.icon2;prIcon=user" parent="1" vertex="1">
          <mxGeometry x="1179" y="400" width="29.17" height="28" as="geometry" />
        </mxCell>
        <mxCell id="cZ90DH8mNP3HIYeP9Kkx-48" value="" style="aspect=fixed;sketch=0;html=1;dashed=0;whitespace=wrap;verticalLabelPosition=bottom;verticalAlign=top;fillColor=#2875E2;strokeColor=#ffffff;points=[[0.005,0.63,0],[0.1,0.2,0],[0.9,0.2,0],[0.5,0,0],[0.995,0.63,0],[0.72,0.99,0],[0.5,1,0],[0.28,0.99,0]];shape=mxgraph.kubernetes.icon2;prIcon=user" parent="1" vertex="1">
          <mxGeometry x="616.34" y="182" width="29.17" height="28" as="geometry" />
        </mxCell>
        <mxCell id="cZ90DH8mNP3HIYeP9Kkx-49" value="" style="aspect=fixed;sketch=0;html=1;dashed=0;whitespace=wrap;verticalLabelPosition=bottom;verticalAlign=top;fillColor=#2875E2;strokeColor=#ffffff;points=[[0.005,0.63,0],[0.1,0.2,0],[0.9,0.2,0],[0.5,0,0],[0.995,0.63,0],[0.72,0.99,0],[0.5,1,0],[0.28,0.99,0]];shape=mxgraph.kubernetes.icon2;prIcon=user" parent="1" vertex="1">
          <mxGeometry x="1549" y="130" width="29.17" height="28" as="geometry" />
        </mxCell>
        <mxCell id="cZ90DH8mNP3HIYeP9Kkx-50" value="" style="aspect=fixed;sketch=0;html=1;dashed=0;whitespace=wrap;verticalLabelPosition=bottom;verticalAlign=top;fillColor=#2875E2;strokeColor=#ffffff;points=[[0.005,0.63,0],[0.1,0.2,0],[0.9,0.2,0],[0.5,0,0],[0.995,0.63,0],[0.72,0.99,0],[0.5,1,0],[0.28,0.99,0]];shape=mxgraph.kubernetes.icon2;prIcon=user" parent="1" vertex="1">
          <mxGeometry x="570.8300000000002" y="231.43999999999997" width="29.17" height="28" as="geometry" />
        </mxCell>
        <mxCell id="cZ90DH8mNP3HIYeP9Kkx-51" value="" style="aspect=fixed;sketch=0;html=1;dashed=0;whitespace=wrap;verticalLabelPosition=bottom;verticalAlign=top;fillColor=#2875E2;strokeColor=#ffffff;points=[[0.005,0.63,0],[0.1,0.2,0],[0.9,0.2,0],[0.5,0,0],[0.995,0.63,0],[0.72,0.99,0],[0.5,1,0],[0.28,0.99,0]];shape=mxgraph.kubernetes.icon2;prIcon=user" parent="1" vertex="1">
          <mxGeometry x="616.35" y="287.43" width="29.17" height="28" as="geometry" />
        </mxCell>
        <mxCell id="cZ90DH8mNP3HIYeP9Kkx-56" value="" style="aspect=fixed;sketch=0;html=1;dashed=0;whitespace=wrap;verticalLabelPosition=bottom;verticalAlign=top;fillColor=#2875E2;strokeColor=#ffffff;points=[[0.005,0.63,0],[0.1,0.2,0],[0.9,0.2,0],[0.5,0,0],[0.995,0.63,0],[0.72,0.99,0],[0.5,1,0],[0.28,0.99,0]];shape=mxgraph.kubernetes.icon2;prIcon=user" parent="1" vertex="1">
          <mxGeometry x="1428.17" y="211.99999999999997" width="29.17" height="28" as="geometry" />
        </mxCell>
        <mxCell id="cZ90DH8mNP3HIYeP9Kkx-57" value="" style="aspect=fixed;sketch=0;html=1;dashed=0;whitespace=wrap;verticalLabelPosition=bottom;verticalAlign=top;fillColor=#2875E2;strokeColor=#ffffff;points=[[0.005,0.63,0],[0.1,0.2,0],[0.9,0.2,0],[0.5,0,0],[0.995,0.63,0],[0.72,0.99,0],[0.5,1,0],[0.28,0.99,0]];shape=mxgraph.kubernetes.icon2;prIcon=user" parent="1" vertex="1">
          <mxGeometry x="1483.4899999999998" y="260" width="29.17" height="28" as="geometry" />
        </mxCell>
        <mxCell id="cZ90DH8mNP3HIYeP9Kkx-58" value="" style="aspect=fixed;sketch=0;html=1;dashed=0;whitespace=wrap;verticalLabelPosition=bottom;verticalAlign=top;fillColor=#2875E2;strokeColor=#ffffff;points=[[0.005,0.63,0],[0.1,0.2,0],[0.9,0.2,0],[0.5,0,0],[0.995,0.63,0],[0.72,0.99,0],[0.5,1,0],[0.28,0.99,0]];shape=mxgraph.kubernetes.icon2;prIcon=user" parent="1" vertex="1">
          <mxGeometry x="1483.4899999999998" y="332" width="29.17" height="28" as="geometry" />
        </mxCell>
        <mxCell id="cZ90DH8mNP3HIYeP9Kkx-59" value="" style="aspect=fixed;sketch=0;html=1;dashed=0;whitespace=wrap;verticalLabelPosition=bottom;verticalAlign=top;fillColor=#2875E2;strokeColor=#ffffff;points=[[0.005,0.63,0],[0.1,0.2,0],[0.9,0.2,0],[0.5,0,0],[0.995,0.63,0],[0.72,0.99,0],[0.5,1,0],[0.28,0.99,0]];shape=mxgraph.kubernetes.icon2;prIcon=user" parent="1" vertex="1">
          <mxGeometry x="1428.17" y="391" width="29.17" height="28" as="geometry" />
        </mxCell>
        <mxCell id="cZ90DH8mNP3HIYeP9Kkx-61" value="" style="aspect=fixed;sketch=0;html=1;dashed=0;whitespace=wrap;verticalLabelPosition=bottom;verticalAlign=top;fillColor=#2875E2;strokeColor=#ffffff;points=[[0.005,0.63,0],[0.1,0.2,0],[0.9,0.2,0],[0.5,0,0],[0.995,0.63,0],[0.72,0.99,0],[0.5,1,0],[0.28,0.99,0]];shape=mxgraph.kubernetes.icon2;prIcon=user" parent="1" vertex="1">
          <mxGeometry x="1339" y="70" width="29.17" height="28" as="geometry" />
        </mxCell>
        <mxCell id="cZ90DH8mNP3HIYeP9Kkx-62" value="" style="aspect=fixed;sketch=0;html=1;dashed=0;whitespace=wrap;verticalLabelPosition=bottom;verticalAlign=top;fillColor=#2875E2;strokeColor=#ffffff;points=[[0.005,0.63,0],[0.1,0.2,0],[0.9,0.2,0],[0.5,0,0],[0.995,0.63,0],[0.72,0.99,0],[0.5,1,0],[0.28,0.99,0]];shape=mxgraph.kubernetes.icon2;prIcon=user" parent="1" vertex="1">
          <mxGeometry x="1189.0000000000002" y="210" width="29.17" height="28" as="geometry" />
        </mxCell>
        <mxCell id="cZ90DH8mNP3HIYeP9Kkx-63" value="" style="aspect=fixed;sketch=0;html=1;dashed=0;whitespace=wrap;verticalLabelPosition=bottom;verticalAlign=top;fillColor=#2875E2;strokeColor=#ffffff;points=[[0.005,0.63,0],[0.1,0.2,0],[0.9,0.2,0],[0.5,0,0],[0.995,0.63,0],[0.72,0.99,0],[0.5,1,0],[0.28,0.99,0]];shape=mxgraph.kubernetes.icon2;prIcon=user" parent="1" vertex="1">
          <mxGeometry x="1189.0000000000002" y="-69.13" width="29.17" height="28" as="geometry" />
        </mxCell>
        <mxCell id="KQigV4kiUP4QNjF24Gm--1" value="&lt;div&gt;&lt;span style=&quot;background-color: initial;&quot;&gt;ZPH - ZABBIX&lt;/span&gt;&lt;/div&gt;&lt;div&gt;&lt;span style=&quot;background-color: initial;&quot;&gt;192.168.210.13&lt;/span&gt;&lt;br&gt;&lt;/div&gt;&lt;div&gt;user: blake&lt;/div&gt;" style="sketch=0;pointerEvents=1;shadow=0;dashed=0;html=1;strokeColor=#B20000;fillColor=#e51400;labelPosition=center;verticalLabelPosition=bottom;verticalAlign=top;outlineConnect=0;align=center;shape=mxgraph.office.devices.workstation_pc;fontColor=#ffffff;" vertex="1" parent="1">
          <mxGeometry x="1230.03" y="48.870000000000005" width="61.86" height="68.87" as="geometry" />
        </mxCell>
        <mxCell id="KQigV4kiUP4QNjF24Gm--4" value="" style="image;aspect=fixed;perimeter=ellipsePerimeter;html=1;align=center;fontSize=12;verticalAlign=top;fontColor=#364149;shadow=0;dashed=0;image=img/lib/cumulus/cumulus_linux_icon.svg;" vertex="1" parent="1">
          <mxGeometry x="1264.8899999999999" y="45.870000000000005" width="30" height="30" as="geometry" />
        </mxCell>
        <mxCell id="KQigV4kiUP4QNjF24Gm--10" value="LIGOLO-0" style="image;aspect=fixed;perimeter=ellipsePerimeter;html=1;align=center;shadow=0;dashed=0;spacingTop=3;image=img/lib/active_directory/tunnel.svg;rotation=0;labelBackgroundColor=none;" vertex="1" parent="1">
          <mxGeometry x="870" y="-150" width="95.65" height="19.13" as="geometry" />
        </mxCell>
      </root>
    </mxGraphModel>
  </diagram>
</mxfile>
